<svg width="173" height="173" viewBox="0 0 173 173" fill="none" xmlns="http://www.w3.org/2000/svg">
<path d="M79.8338 17.6901C82.151 11.541 90.849 11.541 93.1662 17.6901C95.0521 22.6946 101.575 23.9139 105.141 19.9285C109.523 15.0318 117.634 18.1739 117.573 24.7447C117.524 30.0926 123.165 33.5858 127.931 31.1578C133.786 28.1747 140.214 34.0346 137.783 40.1398C135.805 45.1088 139.804 50.404 145.125 49.8614C151.662 49.1948 155.539 56.981 151.068 61.7961C147.428 65.715 149.244 72.0972 154.401 73.5133C160.738 75.2532 161.54 83.9141 155.632 86.7888C150.822 89.1284 150.21 95.7356 154.507 98.919C159.788 102.83 157.407 111.197 150.859 111.742C145.529 112.187 142.572 118.127 145.429 122.648C148.939 128.202 143.698 135.143 137.394 133.287C132.264 131.776 127.36 136.246 128.391 141.494C129.658 147.942 122.263 152.521 117.056 148.513C112.818 145.251 106.631 147.648 105.696 152.913C104.549 159.384 95.9987 160.982 92.5911 155.363C89.8177 150.79 83.1823 150.79 80.4089 155.363C77.0013 160.982 68.4513 159.384 67.3035 152.913C66.3693 147.648 60.1819 145.251 55.9439 148.513C50.7368 152.521 43.3416 147.942 44.6085 141.494C45.6397 136.246 40.736 131.776 35.6058 133.287C29.3023 135.143 24.0606 128.202 27.5712 122.648C30.4284 118.127 27.4707 112.187 22.1411 111.742C15.5927 111.197 13.2124 102.83 18.4925 98.919C22.79 95.7356 22.1777 89.1284 17.3685 86.7888C11.4595 83.9141 12.2621 75.2532 18.5987 73.5133C23.7559 72.0972 25.5718 65.715 21.9325 61.7961C17.461 56.981 21.338 49.1948 27.8752 49.8614C33.1958 50.404 37.1945 45.1088 35.2167 40.1398C32.7865 34.0346 39.2145 28.1747 45.0694 31.1578C49.8347 33.5858 55.4763 30.0926 55.4269 24.7447C55.3663 18.1739 63.4771 15.0318 67.859 19.9285C71.4254 23.9139 77.9479 22.6946 79.8338 17.6901Z" fill="white"/>
<circle cx="64.0216" cy="29.3077" r="12.8043" fill="white"/>
<circle cx="86.2154" cy="24.755" r="12.8043" fill="white"/>
<circle cx="107.84" cy="29.3077" r="12.8043" fill="white"/>
<circle cx="128.327" cy="40.689" r="12.8043" fill="white"/>
<circle cx="44.1036" cy="40.689" r="12.8043" fill="white"/>
<circle cx="31.0147" cy="57.1925" r="12.8043" fill="white"/>
<circle cx="12.8043" cy="12.8043" r="12.8043" transform="matrix(-1 0 0 1 153.651 44.3882)" fill="white"/>
<circle cx="23.6168" cy="79.9556" r="12.8043" fill="white"/>
<circle cx="12.8043" cy="12.8043" r="12.8043" transform="matrix(-1 0 0 1 161.049 67.1514)" fill="white"/>
<circle cx="26.462" cy="101.581" r="12.8043" fill="white"/>
<circle cx="12.8043" cy="12.8043" r="12.8043" transform="matrix(-1 0 0 1 158.204 88.7764)" fill="white"/>
<circle cx="36.1363" cy="121.498" r="12.8043" fill="white"/>
<circle cx="12.8043" cy="12.8043" r="12.8043" transform="matrix(-1 0 0 1 148.53 108.694)" fill="white"/>
<circle cx="51.5015" cy="137.433" r="12.8043" fill="white"/>
<circle cx="12.8043" cy="12.8043" r="12.8043" transform="matrix(-1 0 0 1 133.165 124.628)" fill="white"/>
<circle cx="74.8341" cy="145.969" r="12.8043" fill="white"/>
<circle cx="12.8043" cy="12.8043" r="12.8043" transform="matrix(-1 0 0 1 110.401 133.165)" fill="white"/>
<circle cx="84.508" cy="73.1267" r="28.7385" fill="#020715"/>
<ellipse cx="57.1018" cy="53.2124" rx="13.0888" ry="6.55332" transform="rotate(7.73516 57.1018 53.2124)" fill="#020715"/>
<ellipse cx="13.0888" cy="6.55332" rx="13.0888" ry="6.55332" transform="matrix(-0.990901 0.134594 0.134594 0.990901 124.39 44.957)" fill="#020715"/>
<circle cx="3.12993" cy="3.12993" r="3.12993" transform="matrix(-1 0 0 1 75.6875 67.1514)" fill="white"/>
<circle cx="3.12993" cy="3.12993" r="3.12993" transform="matrix(-1 0 0 1 100.158 67.1514)" fill="white"/>
<path d="M85.1011 27.2833C72.5364 26.6807 68.1183 35.0032 67.1133 42.7156C70.2087 42.0876 74.4719 41.7471 79.8448 41.8442C95.1004 42.1201 101.087 48.3704 102.173 51.4611C103.682 43.7471 102.381 28.112 85.1011 27.2833Z" fill="#48CDFA"/>
<path d="M102.173 51.4611C101.087 48.3704 95.1004 42.1201 79.8448 41.8442C74.4719 41.7471 70.2087 42.0876 67.1133 42.7156C66.7362 45.6101 66.8398 48.4186 67.1739 50.6371C72.3442 49.7456 86.5825 48.6623 102.173 51.4611Z" fill="#0A73F9"/>
<path d="M67.1133 42.7156C59.2229 44.3166 58.9219 47.7861 67.1739 50.6371C66.8398 48.4186 66.7362 45.6101 67.1133 42.7156Z" fill="#0A73F9"/>
</svg>
