<svg xmlns="http://www.w3.org/2000/svg"><symbol id="shopadd" viewBox="0 0 16 16"><g fill="#3D4046" clip-path="url(#a)"><path d="M14 4h-2a4 4 0 1 0-8 0H2a2 2 0 0 0-2 2v6.667A3.337 3.337 0 0 0 3.333 16h7.791A4 4 0 1 1 16 9.691V6a2 2 0 0 0-2-2zM5.333 4a2.667 2.667 0 0 1 5.334 0H5.333z"/><path d="M15.333 12H14v-1.333a.667.667 0 0 0-1.333 0V12h-1.334a.666.666 0 1 0 0 1.333h1.334v1.334a.667.667 0 0 0 1.333 0v-1.334h1.333a.667.667 0 1 0 0-1.333z"/></g><defs><clipPath id="a"><path fill="#fff" d="M0 0h16v16H0z"/></clipPath></defs></symbol><symbol id="check" viewBox="0 0 16 16"><g clip-path="url(#a)"><path fill="#3D4046" d="M8 0C3.589 0 0 3.589 0 8s3.589 8 8 8 8-3.589 8-8-3.589-8-8-8zm4.133 7.008l-2.95 2.897a2.656 2.656 0 0 1-3.718.014L4.2 8.675a.667.667 0 1 1 .935-.951l1.262 1.24c.517.5 1.334.498 1.854-.011l2.95-2.896a.666.666 0 1 1 .933.951z"/></g><defs><clipPath id="a"><path fill="#fff" d="M0 0h16v16H0z"/></clipPath></defs></symbol><symbol id="user" viewBox="0 0 16 16"><path fill="#3D4046" d="M8 8a4 4 0 1 0 0-8 4 4 0 0 0 0 8zm0 1.334a6.007 6.007 0 0 0-6 6c0 .368.298.666.667.666h10.666a.667.667 0 0 0 .667-.666 6.007 6.007 0 0 0-6-6z"/></symbol><symbol id="addimage" viewBox="0 0 16 16"><g clip-path="url(#a)"><path fill="#3D4046" d="M16 12.667a.666.666 0 0 1-.667.666h-2v2a.666.666 0 1 1-1.333 0v-2h-2A.666.666 0 1 1 10 12h2v-2a.667.667 0 1 1 1.333 0v2h2c.368 0 .667.298.667.667zm-5.333-8a.667.667 0 1 0-.002-1.335.667.667 0 0 0 .002 1.335zM3.205 6.1L0 9.306V3.333A3.337 3.337 0 0 1 3.333 0h8a3.337 3.337 0 0 1 3.334 3.333V8h-2a2.002 2.002 0 0 0-1.995 1.862L6.911 6.101a2.622 2.622 0 0 0-3.706 0zM8.667 4c0 1.103.897 2 2 2 1.102 0 2-.897 2-2s-.898-2-2-2c-1.103 0-2 .897-2 2zM8 12.667c0-.976.701-1.79 1.627-1.965L5.968 7.043a1.29 1.29 0 0 0-1.82 0L0 11.191v.142a3.337 3.337 0 0 0 3.333 3.334H8v-2z"/></g><defs><clipPath id="a"><path fill="#fff" d="M0 0h16v16H0z"/></clipPath></defs></symbol><symbol id="eyecrossed" viewBox="0 0 16 16"><g clip-path="url(#a)"><path fill="#3D4046" d="M15.511 6.272a10.573 10.573 0 0 0-2.246-2.605L15.13 1.8a.666.666 0 0 0-.943-.943L12.16 2.89A8.033 8.033 0 0 0 8 1.764c-4.126 0-6.477 2.824-7.511 4.508a3.27 3.27 0 0 0 0 3.44c.601.985 1.36 1.865 2.246 2.605L.87 14.183a.666.666 0 1 0 .943.942l2.034-2.034A8.033 8.033 0 0 0 8 14.22c4.126 0 6.477-2.825 7.511-4.508a3.27 3.27 0 0 0 0-3.44zm-11.51 1.72a3.992 3.992 0 0 1 6.312-3.256l-.967.968A2.63 2.63 0 0 0 8 5.326a2.666 2.666 0 0 0-2.666 2.666c.003.474.133.94.378 1.345l-.967.968A3.973 3.973 0 0 1 4 7.992zM8 11.99c-.83 0-1.639-.26-2.313-.743l.968-.967A2.63 2.63 0 0 0 8 10.658a2.666 2.666 0 0 0 2.666-2.666 2.63 2.63 0 0 0-.378-1.346l.967-.967A3.992 3.992 0 0 1 8 11.99z"/></g><defs><clipPath id="a"><path fill="#fff" d="M0 0h16v16H0z"/></clipPath></defs></symbol><symbol id="eye" viewBox="0 0 16 16"><path fill="#3D4046" d="M8 10.666a2.666 2.666 0 1 0 0-5.332 2.666 2.666 0 0 0 0 5.332z"/><path fill="#3D4046" d="M15.511 6.28C14.478 4.597 12.127 1.772 8 1.772c-4.126 0-6.478 2.825-7.511 4.508a3.27 3.27 0 0 0 0 3.44C1.522 11.404 3.874 14.228 8 14.228c4.127 0 6.478-2.824 7.511-4.508a3.27 3.27 0 0 0 0-3.44zM8 12a3.999 3.999 0 1 1 0-7.997A3.999 3.999 0 0 1 8 12z"/></symbol><symbol id="commetdot" viewBox="0 0 16 16"><g clip-path="url(#a)"><path fill="#3D4046" d="M8.557.02A8.02 8.02 0 0 0 2.34 2.346 8.013 8.013 0 0 0 .02 8.57C.313 12.805 4.055 16 8.723 16h3.944a3.337 3.337 0 0 0 3.334-3.333v-4.44C16 3.908 12.73.303 8.557.019zM4.667 9a1 1 0 1 1 0-2 1 1 0 0 1 0 2zM8 9a1 1 0 1 1 0-2 1 1 0 0 1 0 2zm3.333 0a1 1 0 1 1 .001-2 1 1 0 0 1 0 2z"/></g><defs><clipPath id="a"><path fill="#fff" d="M0 0h16v16H0z"/></clipPath></defs></symbol><symbol id="comment" viewBox="0 0 16 16"><g clip-path="url(#a)"><path fill="#3D4046" d="M13.117 1.839A7.958 7.958 0 0 0 6.983.067 8 8 0 0 0 8.012 16h4.655A3.337 3.337 0 0 0 16 12.667V7.498a8.031 8.031 0 0 0-2.883-5.66zM5.333 4.667H8A.667.667 0 1 1 8 6H5.333a.667.667 0 1 1 0-1.333zm5.334 6.667H5.333a.666.666 0 1 1 0-1.334h5.334a.667.667 0 0 1 0 1.334zm0-2.667H5.333a.667.667 0 1 1 0-1.333h5.334a.667.667 0 0 1 0 1.333z"/></g><defs><clipPath id="a"><path fill="#fff" d="M0 0h16v16H0z"/></clipPath></defs></symbol><symbol id="setting" viewBox="0 0 16 16"><g clip-path="url(#a)"><path fill="#3D4046" d="M1.071 12a2 2 0 0 0 2.732.734h.002l.296-.172c.56.48 1.204.85 1.9 1.096V14a2 2 0 1 0 4 0v-.342a5.984 5.984 0 0 0 1.898-1.097l.298.172a2.001 2.001 0 0 0 2-3.467l-.296-.17a6.07 6.07 0 0 0 0-2.194l.296-.17a2.001 2.001 0 0 0-2-3.467l-.297.171A5.984 5.984 0 0 0 10 2.342V2a2 2 0 1 0-4 0v.342a5.984 5.984 0 0 0-1.899 1.097l-.298-.172a2.001 2.001 0 1 0-2 3.466l.296.171a6.067 6.067 0 0 0 0 2.193l-.296.171A2.004 2.004 0 0 0 1.071 12zm6.93-6.667a2.667 2.667 0 1 1 0 5.334 2.667 2.667 0 0 1 0-5.334z"/></g><defs><clipPath id="a"><path fill="#fff" d="M0 0h16v16H0z"/></clipPath></defs></symbol><symbol id="shopbag" viewBox="0 0 16 16"><g clip-path="url(#a)"><path fill="#3D4046" d="M16 6a2 2 0 0 0-2-2h-2a4 4 0 1 0-8 0H2a2 2 0 0 0-2 2v6.667A3.337 3.337 0 0 0 3.333 16h9.334A3.337 3.337 0 0 0 16 12.667V6zM5.333 4a2.667 2.667 0 0 1 5.334 0H5.333z"/></g><defs><clipPath id="a"><path fill="#fff" d="M0 0h16v16H0z"/></clipPath></defs></symbol><symbol id="bell" viewBox="0 0 16 16"><g fill="#3D4046" clip-path="url(#a)"><path d="M4.95 14a3.327 3.327 0 0 0 6.1 0h-6.1zm9.978-5.634l-1.157-3.815a6.214 6.214 0 0 0-12.05.302l-.9 3.692a3.333 3.333 0 0 0 3.24 4.122h7.677a3.333 3.333 0 0 0 3.19-4.301z"/></g><defs><clipPath id="a"><path fill="#fff" d="M0 0h16v16H0z"/></clipPath></defs></symbol><symbol id="share" viewBox="0 0 16 16"><path fill="#3D4046" d="M5.387 3.67l1.95-1.951-.004 10.292a.667.667 0 1 0 1.333 0l.005-10.28 1.942 1.941a.667.667 0 0 0 .942-.942L9.415.586a2 2 0 0 0-2.829 0L4.443 2.728a.667.667 0 0 0 .943.942z"/><path fill="#3D4046" d="M15.333 10.666a.667.667 0 0 0-.666.667V14a.667.667 0 0 1-.667.666H2A.667.667 0 0 1 1.333 14v-2.667a.667.667 0 1 0-1.333 0V14a2 2 0 0 0 2 2h12a2 2 0 0 0 2-2v-2.667a.667.667 0 0 0-.667-.667z"/></symbol><symbol id="chat" viewBox="0 0 16 16"><path fill="#3D4046" d="M5.8 12H2c-.995 0-2-.756-2-2.444v-3.36A6.278 6.278 0 0 1 5.566.016a6 6 0 0 1 6.419 6.418A6.28 6.28 0 0 1 5.8 12zm7.533-5.946h-.008c0 .158 0 .316-.008.474-.257 3.606-3.552 6.657-7.261 6.793v.01A5.333 5.333 0 0 0 10.666 16H14a2 2 0 0 0 2-2v-3.333a5.333 5.333 0 0 0-2.667-4.613z"/></symbol><symbol id="cancel" viewBox="0 0 19 16"><path fill="#3D4046" d="M15.012 0H7.867A3.884 3.884 0 0 0 6.13.404a3.934 3.934 0 0 0-1.38 1.14L.165 7.51a.806.806 0 0 0 0 .982l4.583 5.964a3.915 3.915 0 0 0 3.118 1.545h7.145a3.93 3.93 0 0 0 2.793-1.173A4.03 4.03 0 0 0 18.963 12V4a4.03 4.03 0 0 0-1.159-2.827A3.93 3.93 0 0 0 15.014 0zm-1.021 9.834a.8.8 0 0 1 .241.569.806.806 0 0 1-.49.747.78.78 0 0 1-.868-.184L11.062 9.13 9.25 10.966a.785.785 0 0 1-1.107-.01.805.805 0 0 1-.01-1.122L9.945 8 8.133 6.166a.805.805 0 0 1 .01-1.122.785.785 0 0 1 1.107-.01l1.812 1.835 1.812-1.835a.785.785 0 0 1 1.107.01.805.805 0 0 1 .01 1.122L12.179 8l1.812 1.834z"/></symbol><symbol id="plane" viewBox="0 0 16 16"><path fill="#3D4046" d="M15.533 6.703a1.995 1.995 0 0 0-1.525-.707h-2.281L8.88 1.018a1.925 1.925 0 0 0-2.458-.86c-.293.127-.55.325-.748.576a1.797 1.797 0 0 0-.242 1.62l1.294 3.642H3.69l-.944-1.269a1.622 1.622 0 0 0-1.359-.734A1.383 1.383 0 0 0 .012 5.199c-.03.221-.004.446.072.656L1.334 8l-1.25 2.145a1.388 1.388 0 0 0 1.3 1.862 1.619 1.619 0 0 0 1.359-.734l.947-1.27h3.036l-1.294 3.643a1.798 1.798 0 0 0 .242 1.62 1.923 1.923 0 0 0 3.206-.284l2.846-4.978h2.282a2.006 2.006 0 0 0 1.806-1.167 2.013 2.013 0 0 0-.281-2.134z"/></symbol><symbol id="link" viewBox="0 0 16 16"><path fill="#3D4046" d="M15.252 6.382a.668.668 0 0 0-.944 0l-7.273 7.304a3.339 3.339 0 0 1-4.722-4.721l7.044-7.073a2.003 2.003 0 0 1 2.833 2.833l-7.044 7.072a.682.682 0 0 1-.944 0 .668.668 0 0 1 0-.944l6.271-6.3a.668.668 0 0 0-.944-.944l-6.271 6.3a2.003 2.003 0 0 0 0 2.833c.793.756 2.04.757 2.833 0l7.043-7.073A3.338 3.338 0 0 0 8.413.949L1.369 8.02a4.674 4.674 0 0 0 6.61 6.61l7.273-7.302a.668.668 0 0 0 0-.947z"/></symbol><symbol id="share2" viewBox="0 0 16 16"><g clip-path="url(#a)"><path fill="#3D4046" d="M0 7.99a3.096 3.096 0 0 0 5.206 2.278l4.613 2.083c-.032.172-.05.347-.053.522a3.117 3.117 0 1 0 .55-1.759L5.984 9.157a3.046 3.046 0 0 0 .003-2.322l4.328-1.967a3.103 3.103 0 1 0-.55-1.76c.002.176.02.35.053.523L5.216 5.722A3.096 3.096 0 0 0 0 7.991z"/></g><defs><clipPath id="a"><path fill="#fff" d="M0 0h16v16H0z"/></clipPath></defs></symbol><symbol id="3dot" viewBox="0 0 3 16"><path fill="#3D4046" d="M1.333 2.667a1.333 1.333 0 1 0 0-2.667 1.333 1.333 0 0 0 0 2.667zm0 6.666a1.333 1.333 0 1 0 0-2.666 1.333 1.333 0 0 0 0 2.666zm0 6.667a1.333 1.333 0 1 0 0-2.667 1.333 1.333 0 0 0 0 2.667z"/></symbol><symbol id="home" viewBox="0 0 16 16"><g fill="#3D4046" clip-path="url(#a)"><path d="M7.765 9.995c-1.072 0-1.942.896-1.942 2v4h3.883v-4c0-1.104-.87-2-1.941-2z"/><path d="M11 11.995v4h2.588c1.072 0 1.941-.895 1.941-2v-6.08c0-.347-.13-.68-.364-.929L9.666.862a2.535 2.535 0 0 0-3.801 0L.376 6.984a1.36 1.36 0 0 0-.376.94v6.07c0 1.106.87 2 1.941 2H4.53v-4c.013-1.817 1.437-3.301 3.157-3.344 1.778-.044 3.3 1.465 3.314 3.345z"/><path d="M7.765 9.995c-1.072 0-1.942.896-1.942 2v4h3.883v-4c0-1.104-.87-2-1.941-2z"/></g><defs><clipPath id="a"><path fill="#fff" d="M0 0h15.53v16H0z"/></clipPath></defs></symbol><symbol id="angleleft" viewBox="0 0 16 16"><path fill="#3D4046" d="M11.947 1.003a1 1 0 0 1-.293.707L6.539 6.825a1.667 1.667 0 0 0 0 2.357l5.108 5.108a1 1 0 0 1-1.414 1.414L5.125 10.6a3.67 3.67 0 0 1 0-5.186L10.24.296a1 1 0 0 1 1.707.707z"/></symbol><symbol id="bookmark" viewBox="0 0 16 16"><g clip-path="url(#a)"><path fill="#3D4046" d="M1.9 15.7a1.969 1.969 0 0 0 2.177-.43L8 11.37l3.923 3.902a1.97 1.97 0 0 0 2.18.429 1.969 1.969 0 0 0 1.23-1.847V3.333A3.337 3.337 0 0 0 12 0H4A3.337 3.337 0 0 0 .667 3.333v10.52A1.968 1.968 0 0 0 1.899 15.7z"/></g><defs><clipPath id="a"><path fill="#fff" d="M0 0h16v16H0z"/></clipPath></defs></symbol><symbol id="heart" viewBox="0 0 16 16"><g clip-path="url(#a)"><path fill="#3D4046" d="M11.667 1.278A4.267 4.267 0 0 0 8 3.478a4.267 4.267 0 0 0-3.667-2.2A4.533 4.533 0 0 0 0 5.978c0 3.031 3.19 6.342 5.867 8.587a3.316 3.316 0 0 0 4.266 0C12.81 12.32 16 9.009 16 5.978a4.534 4.534 0 0 0-4.333-4.7z"/></g><defs><clipPath id="a"><path fill="#fff" d="M0 0h16v16H0z"/></clipPath></defs></symbol><symbol id="arrowback" viewBox="0 0 16 16"><path fill="#3D4046" d="M12.294 7h-5.69l1.579-1.626c.182-.188.284-.442.284-.707 0-.265-.102-.52-.284-.707a.956.956 0 0 0-.686-.293.956.956 0 0 0-.687.292L4.49 6.35A2.373 2.373 0 0 0 3.828 8c0 .62.238 1.213.662 1.65l2.32 2.392a.956.956 0 0 0 .687.292.956.956 0 0 0 .686-.293c.182-.187.284-.442.284-.707 0-.265-.102-.52-.284-.707L6.605 9h5.69a.956.956 0 0 0 .685-.293 1.017 1.017 0 0 0 0-1.414.956.956 0 0 0-.686-.293z"/></symbol><symbol id="link2" viewBox="0 0 16 16"><path fill="#3D4046" d="M5.222 10.78a4.328 4.328 0 0 1-.428-.499.667.667 0 0 1 1.078-.785c.086.118.183.232.292.34a2.81 2.81 0 0 0 2.003.83c.757 0 1.469-.294 2.004-.83l3.667-3.667a2.837 2.837 0 0 0 0-4.007 2.837 2.837 0 0 0-4.008 0l-.705.705a.666.666 0 1 1-.943-.943l.705-.705a4.17 4.17 0 0 1 5.893 0 4.172 4.172 0 0 1 0 5.893l-3.667 3.667a4.138 4.138 0 0 1-2.946 1.22 4.137 4.137 0 0 1-2.945-1.22zM4.167 16c1.113 0 2.16-.433 2.946-1.22l.705-.706a.666.666 0 1 0-.942-.943l-.706.705a2.814 2.814 0 0 1-2.004.83 2.814 2.814 0 0 1-2.003-.83 2.814 2.814 0 0 1-.83-2.003c0-.757.294-1.469.83-2.003L5.83 6.163a2.815 2.815 0 0 1 2.003-.83 2.813 2.813 0 0 1 2.294 1.17.666.666 0 1 0 1.079-.784 4.159 4.159 0 0 0-.426-.498 4.138 4.138 0 0 0-2.947-1.222c-1.113 0-2.16.434-2.946 1.221L1.221 8.887A4.138 4.138 0 0 0 0 11.833c0 1.113.433 2.16 1.22 2.946A4.137 4.137 0 0 0 4.168 16z"/></symbol><symbol id="box" viewBox="0 0 16 16"><path fill="#3D4046" d="M6.029 2.193C6.833 1.86 9.086 1.067 10.11.71L8.691.178C8.455.083 7.961.02 7.744 0c-.473 0-1.222.198-1.538.296-.9.237-3.136 1.284-4.142 1.778a7.05 7.05 0 0 0-1.065.711c-.71.57-.927 1.54-.947 1.956-.094.569-.04 4.701 0 6.696.06.652.474 1.54 1.361 2.133.71.474 3.491 1.62 4.793 2.134.335.098 1.1.296 1.48.296.378 0 .907-.158 1.124-.237a97.534 97.534 0 0 1 2.248-.889c.757-.284 2.17-.988 2.781-1.304.473-.296.888-.889 1.124-1.363.19-.379.237-1.066.237-1.363V4.92c0-.198-.071-.747-.355-1.363-.284-.617-.868-1.047-1.124-1.186l-1.657-.83c-.65.218-2.225.76-3.314 1.186a212.538 212.538 0 0 0-3.49 1.422c-.119.06-.415.225-.652.415-.236.19-.335.75-.355 1.007v3.497c0 .047-.04.098-.059.118-.047.048-.177.02-.236 0l-.77-1.007c-.047-.095-.138-.08-.177-.06l-.414.238c-.284.19-.355.079-.355 0V8.06c0-1.205.035-3.674.177-3.91.142-.238.533-.534.71-.653a86.777 86.777 0 0 1 2.9-1.303z"/></symbol><symbol id="star" viewBox="0 0 16 16"><g clip-path="url(#a)"><path fill="#3D4046" d="M.885 8.266L3.258 10l-.901 2.791a2.119 2.119 0 0 0 .789 2.409 2.118 2.118 0 0 0 2.533-.013L8 13.48l2.322 1.706a2.15 2.15 0 0 0 3.322-2.394L12.742 10l2.373-1.734a2.151 2.151 0 0 0-1.266-3.888h-2.916l-.884-2.757a2.152 2.152 0 0 0-4.098 0l-.884 2.757H2.154A2.151 2.151 0 0 0 .887 8.266H.885z"/></g><defs><clipPath id="a"><path fill="#fff" d="M0 0h16v16H0z"/></clipPath></defs></symbol><symbol id="plus" viewBox="0 0 22 22"><path fill="#3D4046" d="M12.895 13.166l6.78-.003a1.853 1.853 0 0 0 0-3.699l-6.78-.003.001-6.797a1.855 1.855 0 0 0-3.707 0v6.797l-6.779.003a1.853 1.853 0 1 0 0 3.7l6.78.002v6.776a1.854 1.854 0 1 0 3.706 0v-6.776z"/></symbol><symbol id="x" viewBox="0 0 16 16"><path fill="#3D4046" d="M10.65 7.97l4.792-4.797A1.853 1.853 0 0 0 12.827.558L8.03 5.35 3.225.543A1.854 1.854 0 0 0 .603 3.164L5.41 7.97.618 12.765a1.852 1.852 0 1 0 2.617 2.617L8.03 10.59l4.79 4.792a1.853 1.853 0 1 0 2.622-2.621L10.65 7.97z"/></symbol><symbol id="edit" viewBox="0 0 17 16"><g fill="#3D4046" clip-path="url(#a)"><path d="M12.364 12.667V15.8a3.43 3.43 0 0 0 1.29-.776l1.825-1.772a3.29 3.29 0 0 0 .8-1.252H13.05a.697.697 0 0 0-.485.195.657.657 0 0 0-.201.472zM4.926 9.219a2.663 2.663 0 0 0-.596.865 2.6 2.6 0 0 0-.209 1.02V12h.923c.36 0 .718-.069 1.051-.203.334-.134.637-.33.892-.578l7.78-7.552c.274-.266.427-.625.427-1s-.153-.735-.426-1a1.48 1.48 0 0 0-1.03-.415 1.48 1.48 0 0 0-1.031.415l-7.78 7.552z"/><path d="M16.485 3.301a2.702 2.702 0 0 1-.742 1.308l-7.785 7.553a4.105 4.105 0 0 1-1.336.869c-.5.201-1.037.304-1.578.302H4.12c-.364 0-.714-.14-.971-.39A1.314 1.314 0 0 1 2.747 12v-.895a3.87 3.87 0 0 1 .312-1.532c.207-.485.512-.926.896-1.296l7.78-7.553A2.825 2.825 0 0 1 13.076 0H3.435a3.492 3.492 0 0 0-2.427.977A3.288 3.288 0 0 0 0 3.333v9.334a3.29 3.29 0 0 0 1.007 2.356A3.492 3.492 0 0 0 3.434 16h7.556v-3.333c0-.53.217-1.04.603-1.415a2.094 2.094 0 0 1 1.457-.585h3.435V3.301z"/></g><defs><clipPath id="a"><path fill="#fff" d="M0 0h16.48v16H0z"/></clipPath></defs></symbol><symbol id="angleright" viewBox="0 0 17 16"><path fill="#3D4046" d="M4.176 15c0-.265.108-.52.302-.707l5.27-5.114c.159-.155.285-.339.372-.541a1.625 1.625 0 0 0-.373-1.817L4.485 1.71a.984.984 0 0 1-.29-.704.986.986 0 0 1 .302-.698A1.053 1.053 0 0 1 5.941.295l5.263 5.108a3.617 3.617 0 0 1 1.105 2.593c0 .972-.397 1.905-1.105 2.593l-5.27 5.115a1.06 1.06 0 0 1-1.122.218 1.025 1.025 0 0 1-.462-.368.98.98 0 0 1-.174-.554z"/></symbol></svg>